# xmcd CD database file
#
# Track frame offsets:
#	150
#	27605
#	45157
#	69007
#	95540
#	115237
#	146172
#	172220
#	195405
#	212770
#
# Disc length: 3090 seconds
#
# Revision: 0
# Processed by: cddbd v1.5.2PL0 Copyright (c) Steve Scherf et al.
# Submitted via: CDex 1.70beta2
#
DISCID=8b0c100a
DTITLE=Herb Alpert - Midnight Sun
DYEAR=1992
DGENRE=Jazz
TTITLE0=Midnight Sun
TTITLE1=All The Things You Are
TTITLE2=Someone to Watch Over Me
TTITLE3=In the Wee Small Hours
TTITLE4=Friends
TTITLE5=A Taste of Honey
TTITLE6=Mona Lisa
TTITLE7=I've Grown Accustomed to Her Face
TTITLE8=Silent Tears and Roses
TTITLE9=Smile
EXTD=YEAR: 1992
EXTT0=
EXTT1=
EXTT2=
EXTT3=
EXTT4=
EXTT5=
EXTT6=
EXTT7=
EXTT8=
EXTT9=
PLAYORDER=
